<svg width="14" height="16" viewBox="0 0 14 16" fill="none" xmlns="http://www.w3.org/2000/svg">
<g clip-path="url(#clip0_10_1378)">
<path d="M11.3812 2.61874C10.6187 1.85624 9.38122 1.85624 8.61872 2.61874L2.86873 8.36874C1.5531 9.68436 1.5531 11.8156 2.86873 13.1312C4.18435 14.4469 6.3156 14.4469 7.63123 13.1312L12.3812 8.38124C12.7219 8.04061 13.2781 8.04061 13.6187 8.38124C13.9593 8.72186 13.9593 9.27811 13.6187 9.61874L8.86872 14.3687C6.86872 16.3687 3.63123 16.3687 1.63123 14.3687C-0.368774 12.3687 -0.368774 9.13124 1.63123 7.13124L7.38123 1.38124C8.8281 -0.0656372 11.1719 -0.0656372 12.6187 1.38124C14.0656 2.82811 14.0656 5.17186 12.6187 6.61874L7.11873 12.1187C6.22498 13.0125 4.77498 13.0125 3.88123 12.1187C2.98748 11.225 2.98748 9.77499 3.88123 8.88124L8.38123 4.38124C8.72185 4.04061 9.2781 4.04061 9.61872 4.38124C9.95935 4.72186 9.95935 5.27811 9.61872 5.61874L5.11873 10.1187C4.90935 10.3281 4.90935 10.6719 5.11873 10.8812C5.3281 11.0906 5.67185 11.0906 5.88123 10.8812L11.3812 5.38124C12.1437 4.61874 12.1437 3.38124 11.3812 2.61874Z" fill="#6B7280"/>
</g>
<defs>
<clipPath id="clip0_10_1378">
<path d="M0 0H14V16H0V0Z" fill="white"/>
</clipPath>
</defs>
</svg>
