<svg width="16" height="16" viewBox="0 0 16 16" fill="none" xmlns="http://www.w3.org/2000/svg">
<g clip-path="url(#clip0_10_1383)">
<path d="M15.5656 0.174997C15.8812 0.393747 16.0468 0.771872 15.9875 1.15L13.9875 14.15C13.9406 14.4531 13.7562 14.7187 13.4875 14.8687C13.2187 15.0187 12.8968 15.0375 12.6125 14.9187L8.87496 13.3656L6.73433 15.6812C6.45621 15.9844 6.01871 16.0844 5.63433 15.9344C5.24996 15.7844 4.99996 15.4125 4.99996 15V12.3875C4.99996 12.2625 5.04683 12.1437 5.13121 12.0531L10.3687 6.3375C10.55 6.14062 10.5437 5.8375 10.3562 5.65C10.1687 5.4625 9.86558 5.45 9.66871 5.62812L3.31246 11.275L0.553084 9.89375C0.221834 9.72812 0.00933428 9.39687 -4.07251e-05 9.02812C-0.00941573 8.65937 0.184334 8.31562 0.503084 8.13125L14.5031 0.131247C14.8375 -0.0593776 15.25 -0.0406276 15.5656 0.174997Z" fill="#10B981"/>
</g>
<defs>
<clipPath id="clip0_10_1383">
<path d="M0 0H16V16H0V0Z" fill="white"/>
</clipPath>
</defs>
</svg>
