<svg width="12" height="16" viewBox="0 0 12 16" fill="none" xmlns="http://www.w3.org/2000/svg">
<g clip-path="url(#clip0_10_1441)">
<path d="M2 0C0.896875 0 0 0.896875 0 2V14C0 15.1031 0.896875 16 2 16H10C11.1031 16 12 15.1031 12 14V5H8C7.44688 5 7 4.55312 7 4V0H2ZM8 0V4H12L8 0ZM4.86562 7.81875L6 9.44063L7.13438 7.81875C7.37188 7.47813 7.84063 7.39687 8.17813 7.63438C8.51562 7.87188 8.6 8.34063 8.3625 8.67813L6.91563 10.75L8.36563 12.8188C8.60313 13.1594 8.52187 13.625 8.18125 13.8625C7.84062 14.1 7.375 14.0188 7.1375 13.6781L6 12.0562L4.86562 13.6781C4.62812 14.0188 4.15938 14.1 3.82188 13.8625C3.48438 13.625 3.4 13.1562 3.6375 12.8188L5.08437 10.75L3.63438 8.68125C3.39688 8.34062 3.47812 7.875 3.81875 7.6375C4.15937 7.4 4.625 7.48125 4.8625 7.82188L4.86562 7.81875Z" fill="#059669"/>
</g>
<defs>
<clipPath id="clip0_10_1441">
<path d="M0 0H12V16H0V0Z" fill="white"/>
</clipPath>
</defs>
</svg>
